<svg width="120" height="120" viewBox="0 0 120 120" fill="none" xmlns="http://www.w3.org/2000/svg">
<ellipse cx="60.5405" cy="59.5615" rx="59.4595" ry="59.5615" fill="#D3D4D2"/>
<ellipse cx="60.5405" cy="59.5615" rx="46.4865" ry="46.5663" fill="#E2E3E1"/>
<path d="M32.018 35.214H35.42C36.484 35.214 37.4127 35.41 38.206 35.802C38.9994 36.194 39.6107 36.754 40.04 37.482C40.4694 38.21 40.684 39.0687 40.684 40.058C40.684 41.682 40.208 42.914 39.256 43.754C38.3134 44.5847 36.9974 45 35.308 45H32.018V35.214ZM35.42 43.222C36.4187 43.222 37.184 42.942 37.716 42.382C38.248 41.822 38.514 41.0473 38.514 40.058C38.514 39.47 38.3974 38.9427 38.164 38.476C37.9307 38.0093 37.59 37.6453 37.142 37.384C36.694 37.1227 36.1667 36.992 35.56 36.992H34.146V43.222H35.42ZM45.7258 45.21C44.4378 45.21 43.4251 44.902 42.6878 44.286C41.9505 43.6607 41.5818 42.788 41.5818 41.668C41.5818 40.5573 41.9085 39.68 42.5618 39.036C43.2245 38.392 44.1671 38.07 45.3898 38.07C46.1925 38.07 46.8738 38.2193 47.4338 38.518C47.9938 38.8167 48.4185 39.232 48.7078 39.764C48.9971 40.2867 49.1418 40.8793 49.1418 41.542V42.396H43.5978C43.7471 43.2547 44.5498 43.684 46.0058 43.684C46.4351 43.684 46.8785 43.6467 47.3358 43.572C47.7931 43.4973 48.1898 43.3947 48.5258 43.264V44.748C48.1991 44.888 47.7791 45 47.2658 45.084C46.7525 45.168 46.2391 45.21 45.7258 45.21ZM47.1398 41.024C47.1118 40.576 46.9438 40.2307 46.6358 39.988C46.3278 39.736 45.9031 39.61 45.3618 39.61C44.8298 39.61 44.4098 39.736 44.1018 39.988C43.7938 40.24 43.6258 40.5853 43.5978 41.024H47.1398ZM53.069 45.21C52.565 45.21 52.0237 45.154 51.445 45.042C50.8757 44.9393 50.4277 44.79 50.101 44.594V42.942C50.4743 43.166 50.9223 43.348 51.445 43.488C51.9677 43.628 52.453 43.698 52.901 43.698C53.2837 43.698 53.5637 43.6653 53.741 43.6C53.9183 43.5347 54.007 43.4133 54.007 43.236C54.007 43.096 53.9557 42.984 53.853 42.9C53.7503 42.8067 53.5917 42.7273 53.377 42.662C53.1717 42.5873 52.8263 42.48 52.341 42.34C51.7717 42.172 51.3237 42.004 50.997 41.836C50.6797 41.6587 50.437 41.4393 50.269 41.178C50.1103 40.9167 50.031 40.5807 50.031 40.17C50.031 39.47 50.3063 38.9473 50.857 38.602C51.417 38.2473 52.173 38.07 53.125 38.07C53.5917 38.07 54.0723 38.1213 54.567 38.224C55.071 38.3173 55.4583 38.4433 55.729 38.602V40.212C55.4583 40.0347 55.1037 39.89 54.665 39.778C54.2357 39.666 53.8157 39.61 53.405 39.61C53.0223 39.61 52.7237 39.6473 52.509 39.722C52.3037 39.7967 52.201 39.9367 52.201 40.142C52.201 40.3193 52.299 40.4547 52.495 40.548C52.7003 40.6413 53.0783 40.758 53.629 40.898L53.909 40.968C54.497 41.1267 54.9543 41.304 55.281 41.5C55.6077 41.6867 55.8363 41.9153 55.967 42.186C56.107 42.4473 56.177 42.7787 56.177 43.18C56.177 43.796 55.911 44.2907 55.379 44.664C54.847 45.028 54.077 45.21 53.069 45.21ZM59.7682 45.21C59.2642 45.21 58.7229 45.154 58.1442 45.042C57.5749 44.9393 57.1269 44.79 56.8002 44.594V42.942C57.1736 43.166 57.6216 43.348 58.1442 43.488C58.6669 43.628 59.1522 43.698 59.6002 43.698C59.9829 43.698 60.2629 43.6653 60.4402 43.6C60.6176 43.5347 60.7062 43.4133 60.7062 43.236C60.7062 43.096 60.6549 42.984 60.5522 42.9C60.4496 42.8067 60.2909 42.7273 60.0762 42.662C59.8709 42.5873 59.5256 42.48 59.0402 42.34C58.4709 42.172 58.0229 42.004 57.6962 41.836C57.3789 41.6587 57.1362 41.4393 56.9682 41.178C56.8096 40.9167 56.7302 40.5807 56.7302 40.17C56.7302 39.47 57.0056 38.9473 57.5562 38.602C58.1162 38.2473 58.8722 38.07 59.8242 38.07C60.2909 38.07 60.7716 38.1213 61.2662 38.224C61.7702 38.3173 62.1576 38.4433 62.4282 38.602V40.212C62.1576 40.0347 61.8029 39.89 61.3642 39.778C60.9349 39.666 60.5149 39.61 60.1042 39.61C59.7216 39.61 59.4229 39.6473 59.2082 39.722C59.0029 39.7967 58.9002 39.9367 58.9002 40.142C58.9002 40.3193 58.9982 40.4547 59.1942 40.548C59.3996 40.6413 59.7776 40.758 60.3282 40.898L60.6082 40.968C61.1962 41.1267 61.6536 41.304 61.9802 41.5C62.3069 41.6867 62.5356 41.9153 62.6662 42.186C62.8062 42.4473 62.8762 42.7787 62.8762 43.18C62.8762 43.796 62.6102 44.2907 62.0782 44.664C61.5462 45.028 60.7762 45.21 59.7682 45.21ZM67.9289 45.21C66.6409 45.21 65.6282 44.902 64.8909 44.286C64.1536 43.6607 63.7849 42.788 63.7849 41.668C63.7849 40.5573 64.1116 39.68 64.7649 39.036C65.4276 38.392 66.3702 38.07 67.5929 38.07C68.3956 38.07 69.0769 38.2193 69.6369 38.518C70.1969 38.8167 70.6216 39.232 70.9109 39.764C71.2002 40.2867 71.3449 40.8793 71.3449 41.542V42.396H65.8009C65.9502 43.2547 66.7529 43.684 68.2089 43.684C68.6382 43.684 69.0816 43.6467 69.5389 43.572C69.9962 43.4973 70.3929 43.3947 70.7289 43.264V44.748C70.4022 44.888 69.9822 45 69.4689 45.084C68.9556 45.168 68.4422 45.21 67.9289 45.21ZM69.3429 41.024C69.3149 40.576 69.1469 40.2307 68.8389 39.988C68.5309 39.736 68.1062 39.61 67.5649 39.61C67.0329 39.61 66.6129 39.736 66.3049 39.988C65.9969 40.24 65.8289 40.5853 65.8009 41.024H69.3429ZM72.5141 38.28H74.5581V39.246C74.8288 38.9193 75.2068 38.672 75.6921 38.504C76.1775 38.3267 76.7281 38.238 77.3441 38.238V39.848C76.7001 39.848 76.1308 39.946 75.6361 40.142C75.1508 40.338 74.8148 40.6367 74.6281 41.038V45H72.5141V38.28ZM81.0566 45.21C80.2726 45.21 79.6753 44.9953 79.2646 44.566C78.8633 44.1273 78.6626 43.5207 78.6626 42.746V39.806H77.6826V38.28H78.6626V36.264H80.7766V38.28H82.3586V39.806H80.7766V42.466C80.7766 42.858 80.8513 43.1427 81.0006 43.32C81.15 43.488 81.416 43.572 81.7986 43.572C82.1066 43.572 82.4006 43.4973 82.6806 43.348V44.93C82.2513 45.1167 81.71 45.21 81.0566 45.21ZM86.1413 45.21C85.6373 45.21 85.0959 45.154 84.5173 45.042C83.9479 44.9393 83.4999 44.79 83.1733 44.594V42.942C83.5466 43.166 83.9946 43.348 84.5173 43.488C85.0399 43.628 85.5253 43.698 85.9733 43.698C86.3559 43.698 86.6359 43.6653 86.8133 43.6C86.9906 43.5347 87.0793 43.4133 87.0793 43.236C87.0793 43.096 87.0279 42.984 86.9253 42.9C86.8226 42.8067 86.6639 42.7273 86.4493 42.662C86.2439 42.5873 85.8986 42.48 85.4133 42.34C84.8439 42.172 84.3959 42.004 84.0693 41.836C83.7519 41.6587 83.5093 41.4393 83.3413 41.178C83.1826 40.9167 83.1033 40.5807 83.1033 40.17C83.1033 39.47 83.3786 38.9473 83.9293 38.602C84.4893 38.2473 85.2453 38.07 86.1973 38.07C86.6639 38.07 87.1446 38.1213 87.6393 38.224C88.1433 38.3173 88.5306 38.4433 88.8013 38.602V40.212C88.5306 40.0347 88.1759 39.89 87.7373 39.778C87.3079 39.666 86.8879 39.61 86.4773 39.61C86.0946 39.61 85.7959 39.6473 85.5813 39.722C85.3759 39.7967 85.2733 39.9367 85.2733 40.142C85.2733 40.3193 85.3713 40.4547 85.5673 40.548C85.7726 40.6413 86.1506 40.758 86.7013 40.898L86.9813 40.968C87.5693 41.1267 88.0266 41.304 88.3533 41.5C88.6799 41.6867 88.9086 41.9153 89.0393 42.186C89.1793 42.4473 89.2493 42.7787 89.2493 43.18C89.2493 43.796 88.9833 44.2907 88.4513 44.664C87.9193 45.028 87.1493 45.21 86.1413 45.21ZM59.0014 65.21C57.9374 65.21 57.0741 64.972 56.4114 64.496C55.7581 64.02 55.4314 63.3573 55.4314 62.508C55.4314 61.892 55.5901 61.3693 55.9074 60.94C56.2247 60.5107 56.7334 60.0813 57.4334 59.652C57.0321 59.2693 56.7334 58.9053 56.5374 58.56C56.3414 58.2053 56.2434 57.8133 56.2434 57.384C56.2434 56.9267 56.3601 56.5207 56.5934 56.166C56.8267 55.802 57.1627 55.5173 57.6014 55.312C58.0401 55.1067 58.5487 55.004 59.1274 55.004C59.6874 55.004 60.1774 55.1113 60.5974 55.326C61.0267 55.5313 61.3581 55.816 61.5914 56.18C61.8247 56.5347 61.9414 56.936 61.9414 57.384C61.9414 57.916 61.8154 58.3687 61.5634 58.742C61.3207 59.1153 60.9054 59.498 60.3174 59.89L62.3754 61.836C62.5901 61.4533 62.6974 60.8093 62.6974 59.904H64.4754C64.4754 60.632 64.4194 61.2387 64.3074 61.724C64.2047 62.2 64.0181 62.6713 63.7474 63.138L65.6934 65H63.1594L62.3334 64.244C61.9414 64.58 61.4701 64.8273 60.9194 64.986C60.3781 65.1353 59.7387 65.21 59.0014 65.21ZM59.0434 58.924C59.4447 58.6813 59.7294 58.4573 59.8974 58.252C60.0747 58.0373 60.1634 57.7947 60.1634 57.524C60.1634 57.216 60.0701 56.9687 59.8834 56.782C59.6967 56.5953 59.4447 56.502 59.1274 56.502C58.8101 56.502 58.5581 56.5953 58.3714 56.782C58.1941 56.9687 58.1054 57.216 58.1054 57.524C58.1054 57.7573 58.1754 57.972 58.3154 58.168C58.4647 58.364 58.7074 58.616 59.0434 58.924ZM59.0714 63.768C59.5007 63.768 59.8881 63.7073 60.2334 63.586C60.5881 63.4647 60.8774 63.2967 61.1014 63.082L58.8194 60.856C58.3527 61.0707 58.0121 61.3133 57.7974 61.584C57.5827 61.8453 57.4754 62.1533 57.4754 62.508C57.4754 62.9187 57.6294 63.2313 57.9374 63.446C58.2454 63.6607 58.6234 63.768 59.0714 63.768ZM39.6948 75.214H43.0968C44.1608 75.214 45.0895 75.41 45.8828 75.802C46.6761 76.194 47.2875 76.754 47.7168 77.482C48.1461 78.21 48.3608 79.0687 48.3608 80.058C48.3608 81.682 47.8848 82.914 46.9328 83.754C45.9901 84.5847 44.6741 85 42.9848 85H39.6948V75.214ZM43.0968 83.222C44.0955 83.222 44.8608 82.942 45.3928 82.382C45.9248 81.822 46.1908 81.0473 46.1908 80.058C46.1908 79.47 46.0741 78.9427 45.8408 78.476C45.6075 78.0093 45.2668 77.6453 44.8188 77.384C44.3708 77.1227 43.8435 76.992 43.2368 76.992H41.8228V83.222H43.0968ZM49.5385 78.28H51.5825V79.246C51.8532 78.9193 52.2312 78.672 52.7165 78.504C53.2019 78.3267 53.7525 78.238 54.3685 78.238V79.848C53.7245 79.848 53.1552 79.946 52.6605 80.142C52.1752 80.338 51.8392 80.6367 51.6525 81.038V85H49.5385V78.28ZM56.4291 77.244C56.1024 77.244 55.8271 77.1367 55.6031 76.922C55.3791 76.7073 55.2671 76.4367 55.2671 76.11C55.2671 75.7927 55.3791 75.5267 55.6031 75.312C55.8271 75.088 56.1024 74.976 56.4291 74.976C56.7557 74.976 57.0311 75.088 57.2551 75.312C57.4791 75.5267 57.5911 75.7927 57.5911 76.11C57.5911 76.4367 57.4791 76.7073 57.2551 76.922C57.0311 77.1367 56.7557 77.244 56.4291 77.244ZM55.3651 78.28H57.4931V85H55.3651V78.28ZM59.0405 78.28H61.0845V79.106C61.3925 78.7607 61.7565 78.504 62.1765 78.336C62.6058 78.1587 63.0538 78.07 63.5205 78.07C64.4352 78.07 65.1165 78.3173 65.5645 78.812C66.0218 79.2973 66.2505 79.9553 66.2505 80.786V85H64.1365V81.024C64.1365 80.156 63.7352 79.722 62.9325 79.722C62.5778 79.722 62.2465 79.8107 61.9385 79.988C61.6305 80.156 61.3692 80.408 61.1545 80.744V85H59.0405V78.28ZM67.6538 74.654H69.7678V81.122L72.2178 78.28H74.6678L71.8258 81.556L75.0178 85H72.5678L69.7678 81.976V85H67.6538V74.654ZM78.4645 85.21C77.9605 85.21 77.4192 85.154 76.8405 85.042C76.2712 84.9393 75.8232 84.79 75.4965 84.594V82.942C75.8698 83.166 76.3178 83.348 76.8405 83.488C77.3632 83.628 77.8485 83.698 78.2965 83.698C78.6792 83.698 78.9592 83.6653 79.1365 83.6C79.3138 83.5347 79.4025 83.4133 79.4025 83.236C79.4025 83.096 79.3512 82.984 79.2485 82.9C79.1458 82.8067 78.9872 82.7273 78.7725 82.662C78.5672 82.5873 78.2218 82.48 77.7365 82.34C77.1672 82.172 76.7192 82.004 76.3925 81.836C76.0752 81.6587 75.8325 81.4393 75.6645 81.178C75.5058 80.9167 75.4265 80.5807 75.4265 80.17C75.4265 79.47 75.7018 78.9473 76.2525 78.602C76.8125 78.2473 77.5685 78.07 78.5205 78.07C78.9872 78.07 79.4678 78.1213 79.9625 78.224C80.4665 78.3173 80.8538 78.4433 81.1245 78.602V80.212C80.8538 80.0347 80.4992 79.89 80.0605 79.778C79.6312 79.666 79.2112 79.61 78.8005 79.61C78.4178 79.61 78.1192 79.6473 77.9045 79.722C77.6992 79.7967 77.5965 79.9367 77.5965 80.142C77.5965 80.3193 77.6945 80.4547 77.8905 80.548C78.0958 80.6413 78.4738 80.758 79.0245 80.898L79.3045 80.968C79.8925 81.1267 80.3498 81.304 80.6765 81.5C81.0032 81.6867 81.2318 81.9153 81.3625 82.186C81.5025 82.4473 81.5725 82.7787 81.5725 83.18C81.5725 83.796 81.3065 84.2907 80.7745 84.664C80.2425 85.028 79.4725 85.21 78.4645 85.21Z" fill="#262626"/>
</svg>
