<svg width="120" height="120" viewBox="0 0 120 120" fill="none" xmlns="http://www.w3.org/2000/svg">
<ellipse cx="60.5405" cy="59.5615" rx="59.4595" ry="59.5615" fill="#8A233B"/>
<ellipse cx="60.5405" cy="59.5615" rx="46.4865" ry="46.5663" fill="#BA2A30"/>
<path d="M104.82 29.2381C104.52 29.0048 104.145 28.8722 103.76 28.888C103.375 28.9036 103.015 29.0637 102.753 29.337C102.492 29.6103 102.348 29.978 102.35 30.3631C102.351 30.7485 102.501 31.1171 102.747 31.4064C102.747 31.4064 102.747 31.4064 102.747 31.4064C103.386 32.1696 103.972 32.9861 104.511 33.8422C108.756 40.8283 110.175 49.2916 110.5 57.5467C110.787 67.684 109.037 78.0521 104.181 87.12C103.687 88.0314 103.16 88.9284 102.597 89.8052C102.39 90.1267 102.294 90.5153 102.349 90.8987C102.404 91.282 102.602 91.6269 102.904 91.8601C103.205 92.0934 103.589 92.1987 103.974 92.1555C104.359 92.1124 104.711 91.9225 104.97 91.6409C104.97 91.6409 104.97 91.6409 104.97 91.6409C105.729 90.8096 106.452 89.9405 107.136 89.0418C113.923 80.0608 116.837 68.5326 116.497 57.3519C116.145 48.2431 113.702 38.7441 107.377 31.6254C106.584 30.7601 105.73 29.9563 104.82 29.2381Z" fill="#CFBD84"/>
<path d="M6.90883 62.6126C7.0461 62.9673 7.29926 63.2742 7.63731 63.4591C7.97514 63.644 8.36669 63.6926 8.73113 63.5928C9.09558 63.4931 9.40776 63.2517 9.60433 62.9205C9.80111 62.5893 9.86267 62.1962 9.80015 61.821C9.80015 61.821 9.80015 61.821 9.80015 61.821C9.64483 60.8373 9.56241 59.8353 9.54094 58.8238C9.49317 50.6465 12.6279 42.6595 16.5935 35.4152C21.5598 26.5774 28.3918 18.5932 37.216 13.3268C38.1074 12.8001 39.0209 12.3037 39.9536 11.8423C40.2969 11.6738 40.5786 11.3899 40.7289 11.0328C40.8792 10.6759 40.8869 10.2779 40.7487 9.9223C40.6105 9.56667 40.3362 9.27851 39.9843 9.11694C39.6324 8.9552 39.2331 8.93631 38.8662 9.04403C38.8662 9.04403 38.8662 9.04403 38.8662 9.04403C37.7884 9.36484 36.7221 9.73664 35.674 10.1541C25.2405 14.3496 16.8129 22.7288 11.3552 32.49C6.9725 40.4806 4.18326 49.8858 5.9453 59.2486C6.18009 60.3991 6.49801 61.5278 6.90883 62.6126Z" fill="#CFBD84"/>
<path d="M77.2873 112.035C77.6013 111.821 77.8426 111.505 77.9458 111.134C78.0491 110.763 78.0076 110.37 77.8278 110.037C77.648 109.705 77.3424 109.454 76.9755 109.337C76.6085 109.22 76.212 109.249 75.861 109.394C75.861 109.394 75.861 109.394 75.861 109.394C74.9396 109.767 73.9841 110.072 73.0054 110.321C65.0657 112.207 56.5901 110.947 48.6508 108.705C38.9359 105.846 29.6322 100.971 22.5272 93.5445C21.8145 92.793 21.1265 92.0134 20.4681 91.207C20.2268 90.9098 19.8871 90.6983 19.5057 90.6314C19.1243 90.5644 18.7352 90.6456 18.42 90.8598C18.1048 91.0739 17.8859 91.4059 17.8077 91.7851C17.7293 92.1645 17.8006 92.5583 17.9879 92.8922C17.9879 92.8922 17.9879 92.8922 17.9879 92.8922C18.5421 93.8714 19.1431 94.8279 19.7847 95.7566C26.2089 104.993 36.2592 111.338 46.9865 114.47C55.7484 116.952 65.5298 117.556 74.2347 113.731C75.3002 113.243 76.3256 112.679 77.2873 112.035Z" fill="#CFBD84"/>
<path d="M59.9534 3.90328C59.9473 3.93496 59.9407 3.97663 59.9334 4.02827C59.9261 4.07991 59.9187 4.13355 59.9112 4.18918C59.9079 4.24108 59.9028 4.28886 59.8961 4.33251C59.8882 4.45626 59.8781 4.58388 59.8657 4.71536C59.8574 4.8471 59.8473 4.97471 59.8354 5.09821C59.8278 5.21797 59.8187 5.32962 59.8082 5.43316C59.7945 5.5846 59.7779 5.75188 59.7583 5.93501C59.7429 6.11439 59.724 6.28554 59.7016 6.44845C59.6833 6.61161 59.6588 6.74433 59.6283 6.8466C59.592 6.97656 59.5364 7.06322 59.4615 7.10656C59.3906 7.15016 59.2853 7.16752 59.1455 7.15865C59.0737 7.15409 58.9861 7.14453 58.8828 7.12996C58.7798 7.11139 58.6808 7.09308 58.5857 7.07503C58.4907 7.05697 58.4156 7.04018 58.3605 7.02466L58.3987 6.61225C58.5009 6.64279 58.6074 6.66959 58.7182 6.69265C58.8332 6.71197 58.9246 6.72379 58.9925 6.7281C59.0684 6.73291 59.1229 6.72635 59.1561 6.70842C59.1933 6.69074 59.218 6.64822 59.2303 6.58086C59.2513 6.50204 59.2699 6.399 59.286 6.27177C59.3023 6.14054 59.3173 5.99921 59.3309 5.84776C59.3488 5.69258 59.3642 5.54526 59.377 5.4058C59.3841 5.29402 59.3916 5.17626 59.3995 5.05251C59.4076 4.92476 59.4155 4.79902 59.4234 4.67526C59.4315 4.54752 59.439 4.42976 59.4458 4.32198C59.4486 4.27806 59.4498 4.22804 59.4493 4.1719C59.4529 4.11601 59.4543 4.06199 59.4536 4.00984C59.4532 3.9537 59.4501 3.90741 59.4444 3.87098L59.9534 3.90328ZM57.5703 3.93842C57.5578 4.00977 57.547 4.08523 57.5379 4.16482C57.5289 4.2444 57.5214 4.33011 57.5156 4.42192C57.5075 4.54966 57.4951 4.71321 57.4785 4.91255C57.466 5.10816 57.4508 5.31761 57.4326 5.54091C57.4186 5.76047 57.405 5.97603 57.3915 6.18761C57.3781 6.39918 57.3661 6.5888 57.3554 6.75646C57.3448 6.92413 57.3388 7.05 57.3375 7.13408C57.3353 7.29427 57.3367 7.43063 57.3416 7.54316C57.3504 7.65595 57.3847 7.74831 57.4442 7.82022C57.5038 7.89214 57.6044 7.94863 57.7461 7.98968C57.8878 8.03074 58.0884 8.0595 58.3478 8.07597C58.5634 8.08965 58.7833 8.0976 59.0077 8.09981C59.2322 8.09803 59.4429 8.09337 59.6398 8.08582C59.8409 8.07454 60.0061 8.06097 60.1354 8.04513L60.0851 8.55296C59.9526 8.55658 59.7881 8.56016 59.5914 8.56372C59.3948 8.56727 59.1885 8.5662 58.9724 8.5605C58.7561 8.5588 58.5461 8.55148 58.3425 8.53856C57.9952 8.51652 57.7212 8.47708 57.5204 8.42025C57.3196 8.36342 57.1723 8.28393 57.0786 8.18179C56.9851 8.07566 56.9256 7.93962 56.9001 7.77366C56.8785 7.60797 56.8712 7.4071 56.8782 7.17107C56.8835 7.08724 56.889 6.96935 56.8946 6.8174C56.9045 6.66171 56.9155 6.48806 56.9277 6.29645C56.9401 6.10084 56.9527 5.90324 56.9653 5.70364C56.978 5.50404 56.99 5.31442 57.0014 5.13478C57.0168 4.9554 57.0286 4.80184 57.0367 4.67409C57.0448 4.54635 57.0502 4.46052 57.053 4.41661C57.0588 4.3248 57.0602 4.24071 57.057 4.16436C57.0581 4.08426 57.0555 3.99793 57.0494 3.90535L57.5703 3.93842ZM55.6887 5.2619C55.7845 5.26798 55.8846 5.27032 55.9889 5.26892C56.0972 5.26778 56.2055 5.26664 56.3138 5.26549C56.4463 5.26188 56.635 5.25582 56.8801 5.24732C57.1251 5.23883 57.4022 5.23036 57.7113 5.22192C58.0245 5.21374 58.3476 5.20619 58.6807 5.19928C59.0141 5.18837 59.3372 5.18082 59.6501 5.17663C59.9672 5.1687 60.2499 5.1666 60.4982 5.17033C60.5746 5.16716 60.6528 5.16612 60.7329 5.16719C60.817 5.16852 60.895 5.16947 60.9672 5.17004L60.9375 5.6371C60.9058 5.63108 60.8619 5.62829 60.8058 5.62874C60.7539 5.62544 60.696 5.62177 60.6321 5.61772C60.5723 5.61392 60.5164 5.61037 60.4645 5.60708C60.3045 5.60093 60.1103 5.59863 59.8817 5.60015C59.6534 5.59769 59.4048 5.59994 59.1358 5.60692C58.8711 5.61016 58.6001 5.61701 58.3229 5.62747C58.0459 5.63394 57.7788 5.64304 57.5215 5.65477C57.2643 5.6665 57.0311 5.67775 56.822 5.68853C56.6171 5.69557 56.4503 5.70302 56.3216 5.71088C56.2612 5.71506 56.1927 5.72074 56.1161 5.7279C56.0437 5.73132 55.9712 5.73674 55.8986 5.74416C55.8263 5.74758 55.7639 5.75164 55.7115 5.75633L55.6887 5.2619Z" fill="#CFBD84"/>
<path d="M67.2086 5.01549C67.1917 5.06113 67.1726 5.11855 67.1512 5.18775C67.1337 5.25771 67.1143 5.32729 67.0929 5.3965C67.0754 5.46646 67.0618 5.52697 67.052 5.57805C67.0248 5.69908 66.9961 5.83816 66.966 5.99531C66.9406 6.14928 66.9137 6.31111 66.8852 6.48079C66.8615 6.6473 66.8417 6.81457 66.8258 6.98259C66.7947 7.3147 66.7928 7.61168 66.8201 7.87352C66.8481 8.13144 66.9019 8.33934 66.9816 8.49722C67.0653 8.65586 67.1759 8.74839 67.3133 8.77482C67.388 8.78916 67.467 8.76973 67.5505 8.71654C67.6348 8.65941 67.7192 8.57992 67.8039 8.47807C67.8933 8.37305 67.977 8.25473 68.0552 8.12311C68.138 7.98832 68.211 7.85165 68.2742 7.71308L68.5653 8.20282C68.3835 8.5141 68.2129 8.75626 68.0535 8.92928C67.8988 9.09914 67.7503 9.2152 67.608 9.27747C67.4697 9.3405 67.3338 9.35918 67.2002 9.33351C67.0156 9.29803 66.8497 9.19689 66.7024 9.0301C66.5559 8.85938 66.4488 8.6107 66.381 8.28404C66.314 7.95345 66.3015 7.52948 66.3436 7.01212C66.3571 6.83548 66.3771 6.64586 66.4037 6.44323C66.4342 6.24137 66.4648 6.0497 66.4955 5.86823C66.5301 5.68751 66.5583 5.54019 66.5801 5.42626C66.5929 5.35947 66.6075 5.27267 66.6239 5.16584C66.6403 5.05901 66.6454 4.96836 66.6393 4.89387L67.2086 5.01549ZM70.2469 5.77048C70.3273 5.92443 70.3974 6.10083 70.4571 6.29966C70.5214 6.49532 70.5733 6.70284 70.6127 6.92223C70.6568 7.13844 70.6896 7.36062 70.7111 7.58877C70.7365 7.81768 70.7481 8.04394 70.746 8.26756C70.7486 8.48801 70.7409 8.69834 70.7229 8.89854L70.2143 9.00242C70.2419 8.73074 70.2526 8.45174 70.2463 8.16542C70.2408 7.87516 70.2197 7.59209 70.1829 7.31619C70.1469 7.03637 70.0942 6.76962 70.0247 6.51594C69.9551 6.26226 69.8658 6.03736 69.7568 5.84126L70.2469 5.77048Z" fill="#CFBD84"/>
<path d="M77.5536 7.21409C77.75 7.30828 77.9736 7.40301 78.2244 7.49827C78.479 7.59479 78.7488 7.68998 79.0337 7.78386C79.2161 7.84394 79.3997 7.90022 79.5845 7.9527C79.7732 8.00643 79.9529 8.05513 80.1238 8.0988C80.2998 8.13993 80.458 8.17732 80.5985 8.21098L80.4451 8.67842C80.3134 8.64347 80.1602 8.60353 79.9855 8.5586C79.8108 8.51368 79.6272 8.46373 79.4348 8.40874C79.2461 8.35501 79.0625 8.29873 78.884 8.2399C78.599 8.14603 78.335 8.05271 78.0918 7.95995C77.8498 7.86339 77.6193 7.77058 77.4001 7.68153L77.5536 7.21409ZM77.0272 9.58652C76.9518 9.68802 76.8852 9.78822 76.8275 9.88712C76.7736 9.98727 76.7291 10.0906 76.6942 10.197C76.6231 10.4136 76.6771 10.6272 76.8563 10.8379C77.0356 11.0486 77.3531 11.229 77.809 11.3792C78.0712 11.4656 78.3269 11.5393 78.5763 11.6004C78.8257 11.6615 79.0567 11.7081 79.2692 11.7403C79.4856 11.7736 79.6735 11.7913 79.8328 11.7933L79.6776 12.2854C79.5283 12.2783 79.348 12.2568 79.1367 12.2209C78.9292 12.1862 78.7013 12.1364 78.4532 12.0715C78.2038 12.0104 77.9423 11.9348 77.6688 11.8447C77.2851 11.7183 76.9702 11.5682 76.7241 11.3945C76.478 11.2207 76.3096 11.0284 76.2189 10.8174C76.1282 10.6064 76.1222 10.3812 76.2008 10.1418C76.2494 9.99358 76.3089 9.85734 76.3792 9.73309C76.4494 9.60884 76.5166 9.49409 76.5806 9.38884L77.0272 9.58652Z" fill="#CFBD84"/>
<path d="M89.0801 13.9527C89.1524 13.801 89.1763 13.6484 89.152 13.4949C89.1329 13.3395 89.0685 13.1957 88.9588 13.0634C88.8543 12.9293 88.7101 12.8182 88.526 12.7302C88.3167 12.6302 88.1123 12.5524 87.9127 12.4969C87.7132 12.4414 87.5273 12.3991 87.3551 12.37C87.1865 12.3426 87.0412 12.3175 86.9191 12.2946C86.8241 12.2802 86.73 12.2685 86.6368 12.2594C86.5473 12.2521 86.4632 12.2473 86.3844 12.2452L86.4837 11.6741C86.5629 11.7031 86.6493 11.7311 86.7427 11.7581C86.8398 11.7868 86.9324 11.8111 87.0204 11.831C87.1641 11.8642 87.3302 11.9015 87.5187 11.9428C87.7109 11.9859 87.9139 12.0386 88.1279 12.101C88.3455 12.1651 88.5571 12.2463 88.7628 12.3446C89.0191 12.4671 89.2259 12.6236 89.3832 12.8141C89.5406 13.0046 89.634 13.2177 89.6635 13.4535C89.6983 13.6874 89.6546 13.9325 89.5325 14.1889C89.3914 14.485 89.2045 14.7193 88.9717 14.8918C88.7406 15.0606 88.4728 15.1764 88.1682 15.2392C87.8689 15.3001 87.5428 15.3149 87.19 15.2837C86.8371 15.2524 86.4736 15.1784 86.0994 15.0617L86.052 14.5335C86.3957 14.6491 86.7253 14.7291 87.0409 14.7735C87.3582 14.8143 87.6479 14.8154 87.91 14.7766C88.1758 14.7396 88.4075 14.6531 88.6052 14.5171C88.8066 14.3828 88.9648 14.1947 89.0801 13.9527ZM87.9677 10.4284C88.1002 10.5316 88.2624 10.6468 88.4543 10.774C88.6499 10.903 88.8517 11.0327 89.0598 11.1632C89.2732 11.2918 89.474 11.4099 89.662 11.5175C89.8536 11.6269 90.0161 11.7134 90.1497 11.7773L89.886 12.1633C89.7396 12.08 89.5688 11.9829 89.3736 11.8718C89.1837 11.7589 88.9856 11.6398 88.7794 11.5146C88.5785 11.3876 88.3831 11.2631 88.193 11.1412C88.0083 11.0175 87.8443 10.9058 87.7012 10.8064L87.9677 10.4284Z" fill="#CFBD84"/>
<path d="M94.5204 103.475C94.559 103.404 94.602 103.333 94.6495 103.261C94.6971 103.189 94.7489 103.113 94.805 103.032C94.8659 102.935 94.9441 102.819 95.0394 102.685C95.1348 102.551 95.2351 102.405 95.3403 102.247C95.4456 102.089 95.5489 101.927 95.6503 101.762C95.7518 101.597 95.8444 101.437 95.9283 101.282C96.0877 100.989 96.1898 100.717 96.2344 100.465C96.2755 100.214 96.2414 99.9887 96.1323 99.7886C96.0135 99.5709 95.8152 99.4538 95.5373 99.4372C95.2578 99.4261 94.911 99.5339 94.497 99.7606C94.304 99.8663 94.1078 99.9828 93.9084 100.11C93.7109 100.241 93.5251 100.372 93.351 100.504C93.1733 100.638 93.0264 100.757 92.9103 100.862L92.6546 100.393C92.771 100.297 92.9139 100.192 93.0833 100.076C93.2473 99.9592 93.4282 99.8396 93.6259 99.7177C93.8218 99.5922 94.0285 99.4699 94.2461 99.3508C94.4952 99.2144 94.7348 99.1106 94.9648 99.0394C95.1929 98.9646 95.4072 98.9271 95.6075 98.9269C95.8044 98.9285 95.9823 98.9748 96.1412 99.0656C96.302 99.1599 96.436 99.3054 96.5433 99.502C96.6486 99.6951 96.705 99.8945 96.7124 100.1C96.7217 100.309 96.6911 100.529 96.6206 100.759C96.5502 100.989 96.4488 101.229 96.3165 101.48C96.2329 101.644 96.1387 101.81 96.0337 101.976C95.9272 102.149 95.8223 102.316 95.719 102.477C95.6156 102.639 95.519 102.787 95.4291 102.923C95.3356 103.061 95.2575 103.177 95.1946 103.27C95.1458 103.356 95.1012 103.433 95.0607 103.501C95.0221 103.572 94.9872 103.646 94.9559 103.722L94.5204 103.475ZM97.7037 102.97C97.5005 102.79 97.2948 102.617 97.0867 102.453C96.8752 102.291 96.6712 102.143 96.475 102.008C96.2752 101.876 96.0957 101.76 95.9365 101.66L96.1819 101.246C96.3482 101.342 96.534 101.461 96.7395 101.604C96.945 101.747 97.1573 101.902 97.3762 102.069C97.5951 102.236 97.8113 102.403 98.0248 102.569L97.7037 102.97Z" fill="#CFBD84"/>
<path d="M88.2155 107.358C88.1416 107.376 88.0658 107.395 87.9881 107.414C87.9066 107.435 87.8371 107.454 87.7797 107.471C87.7032 107.495 87.6062 107.526 87.4887 107.566C87.3674 107.607 87.2428 107.652 87.115 107.699C86.9872 107.746 86.8665 107.789 86.7528 107.828C86.6403 107.87 86.5559 107.902 86.4997 107.924C86.4446 107.949 86.3952 107.972 86.3516 107.994C86.3054 108.02 86.2654 108.047 86.2318 108.074L85.8734 107.926C85.8909 107.887 85.9085 107.848 85.926 107.81C85.9397 107.772 85.9528 107.732 85.9653 107.691C85.9964 107.573 86.0262 107.409 86.0548 107.2C86.0845 106.994 86.1147 106.77 86.1455 106.526C86.1735 106.288 86.204 106.057 86.2367 105.834C86.2547 105.686 86.2749 105.525 86.2974 105.351C86.3173 105.182 86.3379 105.009 86.3592 104.831C86.3818 104.657 86.4072 104.492 86.4355 104.337C86.46 104.183 86.4895 104.053 86.5241 103.947C86.5833 103.77 86.6611 103.633 86.7574 103.537C86.8548 103.445 86.9781 103.376 87.1274 103.33C87.3417 103.265 87.5411 103.282 87.7256 103.38C87.9101 103.479 88.0389 103.649 88.112 103.89C88.1769 104.104 88.1893 104.318 88.1493 104.531C88.1066 104.749 88.02 104.953 87.8895 105.143C87.7552 105.334 87.5791 105.505 87.3612 105.655C87.1394 105.806 86.8831 105.926 86.5922 106.014C86.2707 106.112 85.9492 106.168 85.6274 106.182C85.3031 106.201 84.9928 106.191 84.6966 106.152C84.3977 106.117 84.1214 106.067 83.8677 106.002C83.6113 105.942 83.3897 105.88 83.203 105.816L83.2659 105.257C83.4783 105.352 83.7112 105.438 83.9646 105.515C84.2192 105.597 84.4888 105.659 84.7735 105.702C85.0582 105.745 85.3513 105.76 85.6527 105.748C85.9503 105.737 86.2464 105.687 86.5411 105.597C86.855 105.501 87.1085 105.366 87.3019 105.19C87.4926 105.019 87.6223 104.833 87.6911 104.633C87.7572 104.437 87.7636 104.251 87.7103 104.075C87.672 103.949 87.608 103.862 87.5182 103.814C87.4258 103.771 87.3356 103.762 87.2476 103.789C87.1825 103.809 87.1278 103.842 87.0835 103.889C87.0392 103.936 86.9994 104.005 86.964 104.095C86.9271 104.194 86.8954 104.31 86.869 104.444C86.8425 104.577 86.819 104.72 86.7983 104.873C86.7776 105.025 86.7595 105.179 86.7438 105.335C86.7281 105.49 86.7096 105.636 86.6881 105.772C86.6626 105.963 86.6388 106.161 86.6167 106.364C86.5908 106.568 86.5651 106.766 86.5396 106.958C86.5102 107.151 86.4839 107.326 86.4606 107.484C86.5168 107.463 86.598 107.434 86.704 107.397C86.8061 107.362 86.9173 107.322 87.0374 107.277C87.1588 107.236 87.2737 107.195 87.3824 107.153C87.4884 107.117 87.5734 107.087 87.6373 107.063C87.6974 107.041 87.7645 107.014 87.8387 106.983C87.9141 106.956 87.9851 106.928 88.0517 106.9L88.2155 107.358ZM84.2466 107.191C84.1429 106.78 84.0712 106.398 84.0316 106.047C83.9919 105.695 83.9947 105.366 84.0398 105.06C84.085 104.753 84.1842 104.46 84.3374 104.179C84.4918 103.902 84.7105 103.631 84.9936 103.365L85.4682 103.565C85.1743 103.809 84.9516 104.061 84.8003 104.32C84.6501 104.583 84.5518 104.845 84.5053 105.106C84.4563 105.372 84.4441 105.629 84.4689 105.876C84.4899 106.125 84.5227 106.357 84.5673 106.573C84.5901 106.663 84.6155 106.753 84.6433 106.845C84.6673 106.938 84.6953 107.024 84.7273 107.102L84.2466 107.191Z" fill="#CFBD84"/>
<path d="M10.8309 80.0144C10.9045 80.0479 10.9787 80.0859 11.0533 80.1282C11.1279 80.1706 11.2074 80.217 11.2919 80.2673C11.3929 80.3213 11.5136 80.3911 11.6539 80.4769C11.7942 80.5626 11.9467 80.6524 12.1113 80.7464C12.2758 80.8403 12.4438 80.9321 12.6151 81.0217C12.7864 81.1113 12.9523 81.1925 13.1129 81.2652C13.4152 81.4038 13.6937 81.4864 13.9482 81.5131C14.2006 81.5364 14.4227 81.4864 14.6146 81.3632C14.8233 81.2292 14.9264 81.0228 14.9238 80.744C14.9157 80.4641 14.7845 80.1254 14.5302 79.7278C14.4117 79.5426 14.2821 79.3549 14.1415 79.1648C13.9975 78.9768 13.8539 78.8005 13.7106 78.6359C13.5651 78.4679 13.4363 78.3296 13.3241 78.2211L13.7736 77.9325C13.8769 78.042 13.9919 78.1773 14.1186 78.3383C14.2466 78.4937 14.3781 78.6659 14.5132 78.8548C14.6517 79.0416 14.7877 79.2394 14.9213 79.4482C15.0743 79.6874 15.1942 79.9194 15.2809 80.1441C15.371 80.3666 15.4231 80.5779 15.4371 80.778C15.449 80.9748 15.4152 81.1557 15.3356 81.3209C15.2526 81.4882 15.1169 81.6324 14.9284 81.7534C14.7432 81.8723 14.5484 81.9427 14.344 81.9647C14.1362 81.9888 13.9152 81.9738 13.6812 81.9198C13.4471 81.8657 13.2009 81.7814 12.9424 81.667C12.773 81.5952 12.6015 81.5128 12.4281 81.4198C12.2491 81.3256 12.0756 81.2326 11.9077 81.1409C11.7397 81.0491 11.585 80.9631 11.4434 80.8829C11.2997 80.7993 11.1791 80.7295 11.0814 80.6734C10.9924 80.6307 10.9127 80.5916 10.8424 80.5559C10.7688 80.5224 10.6928 80.4928 10.6146 80.467L10.8309 80.0144ZM11.5525 83.1582C11.7184 82.9424 11.876 82.7248 12.0254 82.5053C12.1725 82.2825 12.3062 82.0683 12.4265 81.8628C12.5446 81.6539 12.6479 81.4664 12.7363 81.3003L13.1664 81.516C13.0823 81.6889 12.9761 81.883 12.8479 82.0984C12.7197 82.3137 12.5797 82.5367 12.428 82.7672C12.2762 82.9977 12.1251 83.2254 11.9745 83.4504L11.5525 83.1582Z" fill="#CFBD84"/>
<path d="M6.84898 74.0173C6.82568 73.9448 6.80167 73.8705 6.77695 73.7943C6.7508 73.7144 6.72705 73.6464 6.70571 73.5903C6.67724 73.5156 6.63909 73.421 6.59124 73.3065C6.54196 73.1884 6.48939 73.0672 6.43354 72.9429C6.37768 72.8187 6.32654 72.7012 6.28011 72.5905C6.22994 72.4812 6.19232 72.3993 6.16724 72.3446C6.13842 72.2914 6.11173 72.2438 6.08718 72.2018C6.05747 72.1575 6.02803 72.1195 5.99885 72.0879L6.12193 71.7197C6.16178 71.7344 6.20164 71.7492 6.24149 71.7639C6.27992 71.7749 6.32022 71.7852 6.36239 71.7947C6.48231 71.8174 6.64761 71.8356 6.85827 71.8492C7.0652 71.8643 7.29108 71.8786 7.53591 71.892C7.77558 71.9032 8.00778 71.9171 8.2325 71.934C8.38089 71.9415 8.54263 71.9503 8.71771 71.9604C8.88763 71.9683 9.062 71.9765 9.24082 71.9852C9.4159 71.9954 9.58164 72.0091 9.73804 72.0264C9.89301 72.0399 10.0249 72.0602 10.1336 72.0871C10.314 72.1337 10.4554 72.2017 10.5579 72.291C10.6567 72.3817 10.7338 72.4999 10.7893 72.6457C10.869 72.855 10.866 73.0553 10.7804 73.2464C10.6948 73.4376 10.5343 73.5782 10.2989 73.6682C10.0896 73.7482 9.87754 73.7757 9.6626 73.7508C9.44251 73.7237 9.23318 73.6517 9.03462 73.5349C8.83464 73.4144 8.65246 73.2507 8.48807 73.0438C8.32227 72.8331 8.18528 72.5858 8.07713 72.3017C7.95759 71.9877 7.87969 71.6707 7.84343 71.3505C7.802 71.0281 7.79082 70.7177 7.80989 70.4192C7.8238 70.1184 7.85443 69.8391 7.90178 69.5812C7.94398 69.321 7.9908 69.0954 8.04224 68.9045L8.60324 68.9277C8.52387 69.1464 8.45418 69.385 8.3942 69.6434C8.33047 69.9033 8.28694 70.1769 8.2636 70.4641C8.24027 70.7514 8.24504 71.045 8.27793 71.345C8.30939 71.6413 8.37991 71.9333 8.48949 72.2211C8.60618 72.5276 8.75882 72.7711 8.94741 72.9517C9.13083 73.1299 9.32494 73.2462 9.52973 73.3007C9.72937 73.3528 9.91512 73.346 10.087 73.2803C10.2103 73.2331 10.2928 73.1631 10.3344 73.0701C10.3709 72.9748 10.3728 72.8841 10.3401 72.7982C10.3159 72.7346 10.2789 72.6824 10.2291 72.6415C10.1792 72.6006 10.1082 72.5657 10.0158 72.5368C9.91458 72.507 9.79653 72.4836 9.66166 72.4666C9.52679 72.4497 9.38258 72.4363 9.22903 72.4265C9.07548 72.4167 8.92077 72.4095 8.76491 72.4048C8.60904 72.4002 8.46252 72.392 8.32533 72.3802C8.13246 72.3683 7.93398 72.3586 7.7299 72.351C7.52439 72.3396 7.3252 72.328 7.13233 72.3161C6.93803 72.3004 6.76153 72.2866 6.60281 72.2745C6.6279 72.3291 6.66223 72.408 6.70581 72.5113C6.74797 72.6108 6.79556 72.7189 6.84857 72.8356C6.89784 72.9538 6.94685 73.0657 6.99559 73.1712C7.03918 73.2744 7.07493 73.3571 7.10286 73.4192C7.12937 73.4776 7.16059 73.5427 7.19652 73.6146C7.22872 73.688 7.26136 73.7569 7.29445 73.8213L6.84898 74.0173ZM6.74235 70.0438C7.14555 69.911 7.52108 69.8124 7.86894 69.7479C8.2168 69.6834 8.54499 69.6629 8.85352 69.6862C9.16204 69.7096 9.46149 69.7878 9.75186 69.9208C10.0385 70.0553 10.324 70.2544 10.6085 70.5182L10.4411 71.0061C10.1776 70.73 9.91149 70.5256 9.64265 70.3929C9.37008 70.2616 9.10221 70.182 8.83906 70.1542C8.57074 70.124 8.31408 70.1301 8.06907 70.1724C7.82263 70.2109 7.5931 70.2602 7.38047 70.32C7.2931 70.3492 7.20458 70.3809 7.1149 70.4152C7.0238 70.4457 6.94043 70.4797 6.86481 70.5172L6.74235 70.0438Z" fill="#CFBD84"/>
<path d="M53.122 63.21H47.218V61.554L53.23 53.418H55.93V61.104H57.784V63.21H55.93V66H53.122V63.21ZM53.518 61.104V56.676L50.278 61.104H53.518ZM64.2154 66.27C63.0754 66.27 62.0794 66.012 61.2274 65.496C60.3874 64.968 59.7394 64.212 59.2834 63.228C58.8274 62.232 58.5994 61.062 58.5994 59.718C58.5994 58.362 58.8214 57.192 59.2654 56.208C59.7214 55.224 60.3694 54.468 61.2094 53.94C62.0614 53.412 63.0634 53.148 64.2154 53.148C65.3674 53.148 66.3634 53.412 67.2034 53.94C68.0434 54.468 68.6854 55.224 69.1294 56.208C69.5854 57.192 69.8134 58.362 69.8134 59.718C69.8134 61.062 69.5854 62.232 69.1294 63.228C68.6734 64.212 68.0254 64.968 67.1854 65.496C66.3454 66.012 65.3554 66.27 64.2154 66.27ZM64.2154 63.75C65.1154 63.75 65.8114 63.396 66.3034 62.688C66.7954 61.98 67.0414 61.002 67.0414 59.754C67.0414 58.494 66.7954 57.504 66.3034 56.784C65.8234 56.064 65.1274 55.704 64.2154 55.704C63.3034 55.704 62.6014 56.064 62.1094 56.784C61.6294 57.504 61.3894 58.494 61.3894 59.754C61.3894 61.002 61.6354 61.98 62.1274 62.688C62.6194 63.396 63.3154 63.75 64.2154 63.75ZM72.018 66C71.73 66 71.484 65.904 71.28 65.712C71.088 65.52 70.992 65.28 70.992 64.992C70.992 64.704 71.094 64.458 71.298 64.254C71.502 64.05 71.742 63.948 72.018 63.948C72.306 63.948 72.552 64.05 72.756 64.254C72.96 64.458 73.062 64.704 73.062 64.992C73.062 65.28 72.96 65.52 72.756 65.712C72.552 65.904 72.306 66 72.018 66ZM74.2088 59.502H80.4008V61.662H74.2088V59.502Z" fill="#FAFAFA"/>
</svg>
