<svg width="73" height="43" viewBox="0 0 73 43" fill="none" xmlns="http://www.w3.org/2000/svg">
<path d="M3.76172 29H1.06641C0.988281 29 0.949219 28.9609 0.949219 28.8828L0.996094 12.3945C0.996094 12.332 1.02734 12.3008 1.08984 12.3008H5.70703C7.17578 12.3008 8.33594 12.75 9.1875 13.6484C10.0469 14.5391 10.4766 15.7539 10.4766 17.293C10.4766 18.418 10.2539 19.3984 9.80859 20.2344C9.35547 21.0625 8.76953 21.7031 8.05078 22.1562C7.33203 22.6094 6.55078 22.8359 5.70703 22.8359H3.87891V28.8828C3.87891 28.9609 3.83984 29 3.76172 29ZM5.70703 15.1484L3.87891 15.1719V19.9297H5.70703C6.21484 19.9297 6.65625 19.6875 7.03125 19.2031C7.40625 18.7109 7.59375 18.0742 7.59375 17.293C7.59375 16.668 7.42578 16.1562 7.08984 15.7578C6.75391 15.3516 6.29297 15.1484 5.70703 15.1484ZM17.707 29.2344H16.4062C15.5859 29.2031 14.8281 28.9688 14.1328 28.5312C13.4453 28.0938 12.8906 27.5156 12.4688 26.7969C12.0547 26.0703 11.8477 25.2773 11.8477 24.418L11.8711 16.8125C11.8711 15.9609 12.0742 15.1797 12.4805 14.4688C12.8867 13.7578 13.4336 13.1836 14.1211 12.7461C14.8164 12.3008 15.5781 12.0625 16.4062 12.0312H17.7539C17.832 12.0312 17.8711 12.0625 17.8711 12.125V14.8438C17.8711 14.9062 17.832 14.9375 17.7539 14.9375H16.3828C15.9219 14.9375 15.5312 15.1211 15.2109 15.4883C14.8906 15.8555 14.7305 16.2969 14.7305 16.8125V24.418C14.7305 24.9102 14.8945 25.3438 15.2227 25.7188C15.5508 26.0859 15.9375 26.293 16.3828 26.3398H17.6836C17.7617 26.3398 17.8008 26.3711 17.8008 26.4336L17.8242 29.1406C17.8242 29.2031 17.7852 29.2344 17.707 29.2344ZM22.582 29H19.8633C19.7852 29 19.7461 28.9609 19.7461 28.8828L19.7695 12.3945C19.7695 12.332 19.8008 12.3008 19.8633 12.3008H22.5586C22.6211 12.3008 22.6523 12.332 22.6523 12.3945L22.6758 28.8828C22.6758 28.9609 22.6445 29 22.582 29ZM27.6211 29H24.9023C24.8242 29 24.7852 28.9609 24.7852 28.8828L24.8086 12.3945C24.8086 12.332 24.8398 12.3008 24.9023 12.3008H27.5977C27.6602 12.3008 27.6914 12.332 27.6914 12.3945L27.7148 28.8828C27.7148 28.9609 27.6836 29 27.6211 29ZM32.6602 29H29.9414C29.8633 29 29.8242 28.9609 29.8242 28.8828L29.8477 12.3945C29.8477 12.332 29.8789 12.3008 29.9414 12.3008H32.6367C32.6992 12.3008 32.7305 12.332 32.7305 12.3945L32.7539 28.8828C32.7539 28.9609 32.7227 29 32.6602 29ZM36.2578 29.2344H34.9805C34.9023 29.2344 34.8633 29.2031 34.8633 29.1406V26.4336C34.8633 26.3711 34.9023 26.3398 34.9805 26.3398H36.2578C36.7344 26.293 37.1367 26.0859 37.4648 25.7188C37.793 25.3438 37.957 24.9102 37.957 24.418V16.8125C37.957 16.2969 37.7969 15.8555 37.4766 15.4883C37.1562 15.1211 36.75 14.9375 36.2578 14.9375H34.9336C34.8555 14.9375 34.8164 14.9062 34.8164 14.8438V12.125C34.8164 12.0625 34.8555 12.0312 34.9336 12.0312H36.2812C37.1172 12.0625 37.8789 12.2969 38.5664 12.7344C39.2617 13.1797 39.8086 13.7578 40.207 14.4688C40.6133 15.1797 40.8164 15.9609 40.8164 16.8125L40.8398 24.418C40.8398 25.2773 40.6328 26.0664 40.2188 26.7852C39.8047 27.5117 39.25 28.0938 38.5547 28.5312C37.8672 28.9688 37.1016 29.2031 36.2578 29.2344ZM47.1094 29.2344C46.2422 29.2344 45.4492 29.0156 44.7305 28.5781C44.0195 28.1406 43.4531 27.5547 43.0312 26.8203C42.6172 26.0781 42.4102 25.2539 42.4102 24.3477L42.4336 16.8594C42.4336 15.9688 42.6367 15.1641 43.043 14.4453C43.4492 13.7188 44.0078 13.1367 44.7188 12.6992C45.4375 12.2539 46.2344 12.0312 47.1094 12.0312C48 12.0312 48.793 12.2461 49.4883 12.6758C50.1914 13.1055 50.75 13.6875 51.1641 14.4219C51.5859 15.1484 51.7969 15.9609 51.7969 16.8594V17.9609C51.7969 18.0234 51.7656 18.0547 51.7031 18.0547H49.0078C48.9453 18.0547 48.9141 18.0234 48.9141 17.9609V16.8594C48.9141 16.3281 48.7422 15.8711 48.3984 15.4883C48.0547 15.1055 47.625 14.9141 47.1094 14.9141C46.5391 14.9141 46.1016 15.1094 45.7969 15.5C45.4922 15.8906 45.3398 16.3438 45.3398 16.8594V24.3477C45.3398 24.9336 45.5117 25.4141 45.8555 25.7891C46.1992 26.1562 46.6172 26.3398 47.1094 26.3398C47.625 26.3398 48.0547 26.1367 48.3984 25.7305C48.7422 25.3164 48.9141 24.8555 48.9141 24.3477V23.2344C48.9141 23.1719 48.9453 23.1406 49.0078 23.1406H51.7266C51.7891 23.1406 51.8203 23.1719 51.8203 23.2344V24.3477C51.8203 25.2461 51.6094 26.0664 51.1875 26.8086C50.7578 27.543 50.1914 28.1328 49.4883 28.5781C48.7852 29.0156 47.9922 29.2344 47.1094 29.2344ZM52.7578 28.8828L55.7344 12.3945C55.75 12.332 55.7891 12.3008 55.8516 12.3008H59.332C59.3945 12.3008 59.4336 12.332 59.4492 12.3945L62.3086 28.8828C62.3164 28.9609 62.2852 29 62.2148 29H59.5547C59.4766 29 59.4336 28.9609 59.4258 28.8828L59.168 27.125H55.8984L55.6406 28.8828C55.6328 28.9609 55.5938 29 55.5234 29H52.8516C52.7891 29 52.7578 28.9609 52.7578 28.8828ZM57.457 17.8203L56.3789 24.5586H58.6875L57.7031 17.8203L57.5625 16.9297L57.457 17.8203ZM71.6602 29H63.9023C63.8398 29 63.8086 28.9609 63.8086 28.8828L63.832 12.418C63.832 12.3398 63.8711 12.3008 63.9492 12.3008H66.6211C66.6992 12.3008 66.7383 12.3398 66.7383 12.418L66.7148 26.0469H71.6602C71.7383 26.0469 71.7773 26.0859 71.7773 26.1641V28.8828C71.7773 28.9609 71.7383 29 71.6602 29Z" fill="#262626"/>
</svg>
