<svg width="77" height="76" viewBox="0 0 77 76" fill="none" xmlns="http://www.w3.org/2000/svg">
<path d="M0.5 38C0.5 17.0132 17.5132 0 38.5 0C59.4868 0 76.5 17.0132 76.5 38C76.5 58.9868 59.4868 76 38.5 76C17.5132 76 0.5 58.9868 0.5 38Z" fill="#00BC7D"/>
<mask id="mask0_2049_32664" style="mask-type:alpha" maskUnits="userSpaceOnUse" x="0" y="0" width="77" height="76">
<rect x="0.5" width="76" height="76" fill="#D9D9D9"/>
</mask>
<g mask="url(#mask0_2049_32664)">
<path d="M30.7414 47.975L57.5789 21.1375C58.2123 20.5042 58.9512 20.1875 59.7956 20.1875C60.64 20.1875 61.3789 20.5042 62.0123 21.1375C62.6456 21.7708 62.9623 22.5229 62.9623 23.3937C62.9623 24.2646 62.6456 25.0167 62.0123 25.65L32.9581 54.7833C32.3248 55.4167 31.5859 55.7333 30.7414 55.7333C29.897 55.7333 29.1581 55.4167 28.5248 54.7833L14.9081 41.1667C14.2748 40.5333 13.9713 39.7812 13.9977 38.9104C14.0241 38.0396 14.3539 37.2875 14.9873 36.6542C15.6206 36.0208 16.3727 35.7042 17.2435 35.7042C18.1143 35.7042 18.8664 36.0208 19.4998 36.6542L30.7414 47.975Z" fill="white"/>
</g>
</svg>
