<svg width="120" height="120" viewBox="0 0 120 120" fill="none" xmlns="http://www.w3.org/2000/svg">
<ellipse cx="60.5405" cy="59.5615" rx="59.4595" ry="59.5615" fill="#D3D4D2"/>
<ellipse cx="60.5405" cy="59.5615" rx="46.4865" ry="46.5663" fill="#E2E3E1"/>
<path d="M104.82 29.2381C104.52 29.0048 104.145 28.8722 103.76 28.888C103.375 28.9036 103.015 29.0637 102.753 29.337C102.492 29.6103 102.348 29.978 102.35 30.3632C102.351 30.7485 102.501 31.1171 102.747 31.4064C102.747 31.4064 102.747 31.4064 102.747 31.4064C103.386 32.1696 103.972 32.9861 104.511 33.8423C108.756 40.8284 110.175 49.2916 110.5 57.5467C110.787 67.684 109.037 78.0521 104.181 87.12C103.687 88.0315 103.16 88.9284 102.597 89.8052C102.39 90.1268 102.294 90.5153 102.349 90.8987C102.404 91.282 102.602 91.6269 102.904 91.8602C103.206 92.0935 103.589 92.1987 103.974 92.1555C104.359 92.1125 104.711 91.9225 104.97 91.6409C104.97 91.6409 104.97 91.6409 104.97 91.6409C105.729 90.8097 106.452 89.9406 107.136 89.0418C113.923 80.0608 116.837 68.5326 116.497 57.352C116.145 48.2431 113.702 38.7441 107.377 31.6254C106.584 30.7601 105.731 29.9563 104.82 29.2381Z" fill="#CFBD84"/>
<path d="M6.90881 62.6126C7.04608 62.9673 7.29924 63.2742 7.63729 63.4591C7.97513 63.644 8.36667 63.6926 8.73112 63.5929C9.09556 63.4931 9.40774 63.2518 9.60431 62.9205C9.80109 62.5893 9.86265 62.1962 9.80014 61.821C9.80014 61.821 9.80014 61.821 9.80014 61.821C9.64482 60.8373 9.5624 59.8353 9.54093 58.8238C9.49315 50.6465 12.6279 42.6595 16.5935 35.4152C21.5597 26.5774 28.3918 18.5932 37.2159 13.3268C38.1074 12.8001 39.0208 12.3037 39.9536 11.8424C40.2969 11.6738 40.5786 11.3899 40.7288 11.0328C40.8792 10.6759 40.8869 10.278 40.7487 9.92232C40.6105 9.56669 40.3361 9.27852 39.9843 9.11696C39.6324 8.95522 39.233 8.93633 38.8661 9.04404C38.8661 9.04404 38.8661 9.04404 38.8661 9.04404C37.7883 9.36485 36.7221 9.73666 35.674 10.1541C25.2405 14.3496 16.8129 22.7289 11.3552 32.49C6.97249 40.4806 4.18325 49.8859 5.94529 59.2486C6.18008 60.3991 6.49799 61.5278 6.90881 62.6126Z" fill="#CFBD84"/>
<path d="M77.2873 112.035C77.6013 111.821 77.8426 111.505 77.9458 111.134C78.0491 110.763 78.0076 110.37 77.8278 110.037C77.6481 109.704 77.3424 109.454 76.9755 109.337C76.6085 109.22 76.212 109.249 75.861 109.394C75.861 109.394 75.861 109.394 75.861 109.394C74.9397 109.767 73.9841 110.072 73.0054 110.321C65.0657 112.207 56.5901 110.947 48.6508 108.705C38.9359 105.846 29.6322 100.971 22.5272 93.5445C21.8145 92.793 21.1265 92.0134 20.4681 91.207C20.2268 90.9098 19.8871 90.6983 19.5057 90.6314C19.1244 90.5644 18.7352 90.6456 18.42 90.8597C18.1048 91.0739 17.8859 91.4058 17.8077 91.7851C17.7293 92.1645 17.8006 92.5583 17.9879 92.8922C17.9879 92.8922 17.9879 92.8922 17.9879 92.8922C18.5421 93.8714 19.1431 94.8279 19.7847 95.7566C26.2089 104.993 36.2593 111.338 46.9865 114.47C55.7484 116.952 65.5298 117.556 74.2347 113.731C75.3003 113.243 76.3256 112.679 77.2873 112.035Z" fill="#CFBD84"/>
<path d="M59.9534 3.90325C59.9473 3.93493 59.9407 3.97659 59.9334 4.02824C59.9261 4.07988 59.9187 4.13352 59.9112 4.18915C59.9079 4.24105 59.9028 4.28882 59.8961 4.33248C59.8882 4.45623 59.8781 4.58385 59.8657 4.71533C59.8574 4.84707 59.8473 4.97468 59.8354 5.09818C59.8278 5.21794 59.8187 5.32959 59.8082 5.43312C59.7945 5.58457 59.7779 5.75185 59.7583 5.93497C59.7429 6.11436 59.724 6.28551 59.7016 6.44842C59.6833 6.61158 59.6588 6.7443 59.6283 6.84657C59.592 6.97653 59.5364 7.06318 59.4615 7.10653C59.3906 7.15012 59.2853 7.16749 59.1455 7.15862C59.0737 7.15406 58.9861 7.14449 58.8828 7.12992C58.7798 7.11136 58.6808 7.09305 58.5857 7.07499C58.4907 7.05694 58.4156 7.04015 58.3605 7.02463L58.3987 6.61222C58.5009 6.64276 58.6074 6.66956 58.7182 6.69262C58.8332 6.71194 58.9246 6.72376 58.9925 6.72806C59.0684 6.73288 59.1229 6.72632 59.1561 6.70838C59.1933 6.6907 59.218 6.64819 59.2303 6.58083C59.2513 6.502 59.2699 6.39897 59.286 6.27174C59.3023 6.14051 59.3173 5.99917 59.3309 5.84773C59.3488 5.69255 59.3642 5.54523 59.377 5.40576C59.3841 5.29399 59.3916 5.17622 59.3995 5.05247C59.4076 4.92473 59.4155 4.79898 59.4234 4.67523C59.4315 4.54749 59.439 4.42973 59.4458 4.32194C59.4486 4.27803 59.4498 4.22801 59.4493 4.17186C59.4529 4.11598 59.4543 4.06196 59.4536 4.00981C59.4532 3.95367 59.4501 3.90738 59.4444 3.87095L59.9534 3.90325ZM57.5703 3.93838C57.5578 4.00973 57.547 4.0852 57.5379 4.16479C57.5289 4.24437 57.5214 4.33007 57.5156 4.42189C57.5075 4.54963 57.4951 4.71318 57.4785 4.91252C57.466 5.10813 57.4508 5.31758 57.4326 5.54088C57.4186 5.76043 57.405 5.976 57.3915 6.18757C57.3781 6.39915 57.3661 6.58877 57.3554 6.75643C57.3448 6.92409 57.3388 7.04997 57.3375 7.13405C57.3353 7.29424 57.3367 7.4306 57.3416 7.54313C57.3504 7.65592 57.3847 7.74827 57.4442 7.82019C57.5038 7.89211 57.6044 7.94859 57.7461 7.98965C57.8878 8.03071 58.0884 8.05947 58.3478 8.07594C58.5634 8.08962 58.7833 8.09756 59.0077 8.09978C59.2322 8.098 59.4429 8.09333 59.6398 8.08579C59.8409 8.0745 60.0061 8.06094 60.1354 8.04509L60.0851 8.55293C59.9526 8.55655 59.7881 8.56013 59.5914 8.56368C59.3948 8.56724 59.1885 8.56617 58.9724 8.56047C58.7561 8.55876 58.5461 8.55145 58.3425 8.53853C57.9952 8.51649 57.7212 8.47705 57.5204 8.42022C57.3196 8.36339 57.1723 8.2839 57.0786 8.18176C56.9851 8.07563 56.9256 7.93958 56.9001 7.77363C56.8785 7.60793 56.8712 7.40707 56.8782 7.17104C56.8835 7.08721 56.889 6.96932 56.8946 6.81737C56.9045 6.66168 56.9155 6.48803 56.9277 6.29642C56.9401 6.10081 56.9527 5.90321 56.9653 5.70361C56.978 5.50401 56.99 5.31439 57.0014 5.13475C57.0168 4.95537 57.0286 4.8018 57.0367 4.67406C57.0448 4.54632 57.0502 4.46049 57.053 4.41658C57.0588 4.32476 57.0602 4.24068 57.057 4.16432C57.0581 4.08423 57.0555 3.9979 57.0494 3.90532L57.5703 3.93838ZM55.6887 5.26186C55.7845 5.26795 55.8846 5.27029 55.9889 5.26889C56.0972 5.26775 56.2055 5.2666 56.3138 5.26546C56.4463 5.26184 56.635 5.25579 56.8801 5.24729C57.1251 5.23879 57.4022 5.23033 57.7113 5.22189C58.0245 5.21371 58.3476 5.20616 58.6807 5.19924C59.0141 5.18834 59.3372 5.18079 59.6501 5.1766C59.9672 5.16867 60.2499 5.16657 60.4982 5.1703C60.5746 5.16713 60.6528 5.16608 60.7329 5.16716C60.817 5.16849 60.895 5.16944 60.9672 5.17L60.9375 5.63707C60.9058 5.63105 60.8619 5.62826 60.8058 5.6287C60.7539 5.62541 60.696 5.62174 60.6321 5.61768C60.5723 5.61388 60.5164 5.61034 60.4645 5.60704C60.3045 5.6009 60.1103 5.59859 59.8817 5.60012C59.6534 5.59765 59.4048 5.59991 59.1358 5.60689C58.8711 5.61013 58.6001 5.61698 58.3229 5.62744C58.0459 5.63391 57.7788 5.64301 57.5215 5.65474C57.2643 5.66647 57.0311 5.67772 56.822 5.6885C56.6171 5.69554 56.4503 5.70299 56.3216 5.71085C56.2612 5.71503 56.1927 5.72071 56.1161 5.72787C56.0437 5.73129 55.9712 5.73671 55.8986 5.74413C55.8263 5.74755 55.7639 5.75161 55.7115 5.7563L55.6887 5.26186Z" fill="#CFBD84"/>
<path d="M67.2086 5.01548C67.1917 5.06112 67.1726 5.11854 67.1512 5.18774C67.1337 5.2577 67.1143 5.32728 67.0929 5.39649C67.0754 5.46645 67.0618 5.52696 67.052 5.57803C67.0247 5.69907 66.9961 5.83815 66.966 5.9953C66.9405 6.14927 66.9136 6.31109 66.8852 6.48078C66.8614 6.64729 66.8416 6.81455 66.8257 6.98258C66.7947 7.31469 66.7928 7.61167 66.82 7.87351C66.848 8.13143 66.9019 8.33933 66.9816 8.49721C67.0653 8.65585 67.1758 8.74838 67.3133 8.7748C67.3879 8.78915 67.467 8.76972 67.5505 8.71652C67.6348 8.6594 67.7192 8.57991 67.8039 8.47806C67.8932 8.37304 67.977 8.25472 68.0551 8.1231C68.138 7.98831 68.211 7.85164 68.2742 7.71307L68.5653 8.20281C68.3835 8.51409 68.2129 8.75625 68.0535 8.92927C67.8987 9.09913 67.7503 9.21519 67.608 9.27746C67.4697 9.34049 67.3337 9.35916 67.2002 9.3335C67.0156 9.29802 66.8496 9.19688 66.7024 9.03009C66.5559 8.85937 66.4487 8.61068 66.381 8.28402C66.314 7.95344 66.3015 7.52946 66.3436 7.01211C66.357 6.83547 66.3771 6.64585 66.4037 6.44322C66.4342 6.24135 66.4648 6.04969 66.4955 5.86822C66.5301 5.6875 66.5583 5.54018 66.5801 5.42625C66.5929 5.35946 66.6075 5.27266 66.6239 5.16583C66.6403 5.059 66.6454 4.96834 66.6393 4.89385L67.2086 5.01548ZM70.2468 5.77046C70.3273 5.92442 70.3974 6.10081 70.457 6.29965C70.5214 6.49531 70.5733 6.70283 70.6127 6.92222C70.6568 7.13843 70.6896 7.36061 70.7111 7.58876C70.7365 7.81767 70.7481 8.04393 70.746 8.26755C70.7486 8.488 70.7409 8.69833 70.7229 8.89853L70.2143 9.00241C70.2419 8.73073 70.2526 8.45173 70.2463 8.16541C70.2408 7.87515 70.2197 7.59208 70.1829 7.31618C70.1469 7.03636 70.0941 6.76961 70.0246 6.51593C69.9551 6.26225 69.8658 6.03735 69.7568 5.84125L70.2468 5.77046Z" fill="#CFBD84"/>
<path d="M77.5536 7.21406C77.75 7.30826 77.9736 7.40298 78.2244 7.49825C78.479 7.59476 78.7487 7.68996 79.0337 7.78383C79.216 7.84391 79.3996 7.90019 79.5845 7.95267C79.7732 8.0064 79.9529 8.05511 80.1238 8.09878C80.2998 8.1399 80.458 8.17729 80.5985 8.21095L80.445 8.6784C80.3134 8.64345 80.1602 8.60351 79.9855 8.55858C79.8108 8.51366 79.6272 8.4637 79.4348 8.40872C79.2461 8.35499 79.0625 8.29871 78.8839 8.23988C78.599 8.146 78.3349 8.05269 78.0917 7.95993C77.8498 7.86337 77.6192 7.77056 77.4001 7.68151L77.5536 7.21406ZM77.0272 9.5865C76.9518 9.68799 76.8852 9.78819 76.8275 9.88709C76.7735 9.98725 76.7291 10.0905 76.6942 10.1969C76.623 10.4136 76.6771 10.6272 76.8563 10.8379C77.0355 11.0485 77.3531 11.229 77.809 11.3792C78.0711 11.4655 78.3269 11.5393 78.5763 11.6004C78.8257 11.6615 79.0566 11.7081 79.2692 11.7402C79.4856 11.7736 79.6735 11.7913 79.8328 11.7932L79.6775 12.2854C79.5283 12.2783 79.348 12.2568 79.1367 12.2209C78.9291 12.1862 78.7013 12.1364 78.4532 12.0715C78.2038 12.0104 77.9423 11.9348 77.6688 11.8447C77.2851 11.7182 76.9702 11.5682 76.7241 11.3944C76.478 11.2207 76.3096 11.0284 76.2189 10.8174C76.1282 10.6064 76.1221 10.3812 76.2008 10.1418C76.2494 9.99356 76.3089 9.85732 76.3791 9.73307C76.4494 9.60882 76.5166 9.49407 76.5806 9.38882L77.0272 9.5865Z" fill="#CFBD84"/>
<path d="M89.0801 13.9527C89.1524 13.801 89.1763 13.6484 89.152 13.4949C89.133 13.3395 89.0686 13.1957 88.9588 13.0634C88.8543 12.9292 88.7101 12.8182 88.526 12.7302C88.3167 12.6301 88.1123 12.5524 87.9127 12.4969C87.7132 12.4414 87.5273 12.3991 87.3551 12.37C87.1865 12.3426 87.0412 12.3175 86.9192 12.2946C86.8241 12.2802 86.73 12.2685 86.6369 12.2594C86.5473 12.2521 86.4632 12.2473 86.3844 12.2452L86.4837 11.6741C86.5629 11.7031 86.6493 11.7311 86.7428 11.7581C86.8399 11.7867 86.9324 11.811 87.0204 11.8309C87.1641 11.8641 87.3302 11.9014 87.5187 11.9428C87.7109 11.9859 87.914 12.0386 88.1279 12.101C88.3455 12.1651 88.5571 12.2463 88.7629 12.3446C89.0191 12.4671 89.2259 12.6236 89.3833 12.8141C89.5406 13.0046 89.634 13.2177 89.6635 13.4535C89.6983 13.6874 89.6547 13.9325 89.5325 14.1889C89.3914 14.485 89.2045 14.7193 88.9717 14.8918C88.7406 15.0606 88.4728 15.1764 88.1682 15.2392C87.8689 15.3001 87.5428 15.3149 87.19 15.2837C86.8371 15.2524 86.4736 15.1784 86.0995 15.0616L86.052 14.5335C86.3957 14.6491 86.7253 14.729 87.0409 14.7735C87.3582 14.8143 87.6479 14.8154 87.91 14.7766C88.1758 14.7396 88.4075 14.6531 88.6052 14.5171C88.8066 14.3828 88.9649 14.1946 89.0801 13.9527ZM87.9677 10.4283C88.1002 10.5316 88.2624 10.6468 88.4543 10.774C88.6499 10.9029 88.8517 11.0327 89.0598 11.1632C89.2733 11.2918 89.474 11.4099 89.662 11.5175C89.8536 11.6268 90.0161 11.7134 90.1497 11.7772L89.886 12.1633C89.7396 12.08 89.5688 11.9828 89.3736 11.8718C89.1837 11.7588 88.9856 11.6398 88.7794 11.5146C88.5785 11.3876 88.3831 11.2631 88.193 11.1412C88.0083 11.0174 87.8444 10.9058 87.7012 10.8064L87.9677 10.4283Z" fill="#CFBD84"/>
<path d="M94.5204 103.475C94.559 103.404 94.602 103.333 94.6495 103.261C94.6971 103.189 94.7489 103.113 94.805 103.032C94.8659 102.935 94.9441 102.819 95.0394 102.685C95.1348 102.551 95.2351 102.405 95.3403 102.247C95.4456 102.089 95.5489 101.927 95.6503 101.762C95.7518 101.597 95.8444 101.437 95.9283 101.282C96.0877 100.989 96.1898 100.717 96.2344 100.465C96.2755 100.214 96.2414 99.9887 96.1323 99.7886C96.0135 99.5709 95.8152 99.4538 95.5373 99.4372C95.2578 99.4261 94.911 99.5339 94.497 99.7606C94.304 99.8663 94.1078 99.9828 93.9084 100.11C93.7109 100.241 93.5251 100.372 93.351 100.504C93.1733 100.638 93.0264 100.757 92.9103 100.862L92.6546 100.393C92.771 100.297 92.9139 100.192 93.0833 100.076C93.2473 99.9592 93.4282 99.8396 93.6259 99.7177C93.8218 99.5922 94.0285 99.4699 94.2461 99.3508C94.4952 99.2144 94.7348 99.1106 94.9648 99.0394C95.1929 98.9646 95.4072 98.9271 95.6075 98.9269C95.8044 98.9285 95.9823 98.9748 96.1412 99.0656C96.302 99.1599 96.436 99.3054 96.5433 99.502C96.6486 99.6951 96.705 99.8945 96.7124 100.1C96.7217 100.309 96.6911 100.529 96.6206 100.759C96.5502 100.989 96.4488 101.229 96.3165 101.48C96.2329 101.644 96.1387 101.81 96.0337 101.976C95.9272 102.149 95.8223 102.316 95.719 102.477C95.6156 102.639 95.519 102.787 95.4291 102.923C95.3356 103.061 95.2575 103.177 95.1946 103.27C95.1458 103.356 95.1012 103.433 95.0607 103.501C95.0221 103.572 94.9872 103.646 94.9559 103.722L94.5204 103.475ZM97.7037 102.97C97.5005 102.79 97.2948 102.617 97.0867 102.453C96.8752 102.291 96.6712 102.143 96.475 102.008C96.2752 101.876 96.0957 101.76 95.9365 101.66L96.1819 101.246C96.3482 101.341 96.534 101.461 96.7395 101.604C96.945 101.747 97.1573 101.902 97.3762 102.069C97.5951 102.236 97.8113 102.403 98.0248 102.569L97.7037 102.97Z" fill="#CFBD84"/>
<path d="M88.2155 107.358C88.1416 107.376 88.0658 107.395 87.9881 107.414C87.9066 107.435 87.8371 107.454 87.7797 107.472C87.7031 107.495 87.6061 107.526 87.4887 107.566C87.3673 107.607 87.2428 107.652 87.115 107.699C86.9872 107.746 86.8664 107.789 86.7528 107.828C86.6403 107.87 86.5559 107.902 86.4997 107.924C86.4446 107.949 86.3952 107.972 86.3516 107.994C86.3053 108.02 86.2654 108.047 86.2318 108.074L85.8734 107.926C85.8909 107.887 85.9084 107.848 85.926 107.81C85.9396 107.772 85.9528 107.732 85.9653 107.691C85.9964 107.573 86.0262 107.409 86.0547 107.2C86.0845 106.994 86.1147 106.77 86.1454 106.526C86.1735 106.288 86.2039 106.057 86.2367 105.834C86.2547 105.686 86.2749 105.525 86.2974 105.351C86.3173 105.182 86.3379 105.009 86.3592 104.831C86.3817 104.657 86.4072 104.492 86.4355 104.337C86.46 104.184 86.4895 104.053 86.524 103.947C86.5833 103.77 86.6611 103.633 86.7574 103.537C86.8548 103.445 86.9781 103.376 87.1274 103.33C87.3417 103.265 87.5411 103.282 87.7256 103.381C87.9101 103.479 88.0389 103.649 88.1119 103.89C88.1769 104.104 88.1893 104.318 88.1493 104.531C88.1066 104.749 88.02 104.953 87.8895 105.143C87.7552 105.334 87.5791 105.505 87.3611 105.655C87.1394 105.806 86.8831 105.926 86.5922 106.014C86.2707 106.112 85.9491 106.168 85.6274 106.182C85.3031 106.201 84.9928 106.191 84.6966 106.152C84.3977 106.117 84.1214 106.067 83.8677 106.002C83.6113 105.942 83.3897 105.88 83.203 105.816L83.2659 105.257C83.4783 105.352 83.7112 105.438 83.9646 105.515C84.2192 105.597 84.4888 105.659 84.7735 105.702C85.0582 105.745 85.3513 105.76 85.6527 105.748C85.9503 105.737 86.2464 105.687 86.5411 105.597C86.8549 105.501 87.1085 105.366 87.3019 105.19C87.4925 105.019 87.6223 104.833 87.6911 104.633C87.7572 104.437 87.7636 104.251 87.7103 104.075C87.672 103.949 87.608 103.862 87.5182 103.814C87.4258 103.771 87.3356 103.763 87.2476 103.789C87.1825 103.809 87.1278 103.842 87.0835 103.889C87.0392 103.936 86.9994 104.005 86.964 104.095C86.9271 104.194 86.8954 104.31 86.869 104.444C86.8425 104.577 86.8189 104.72 86.7983 104.873C86.7776 105.025 86.7595 105.179 86.7438 105.335C86.7281 105.49 86.7096 105.636 86.6881 105.772C86.6626 105.963 86.6388 106.161 86.6167 106.364C86.5908 106.568 86.5651 106.766 86.5396 106.958C86.5102 107.151 86.4839 107.326 86.4606 107.484C86.5168 107.463 86.5979 107.434 86.7039 107.397C86.8061 107.362 86.9173 107.322 87.0374 107.277C87.1587 107.236 87.2737 107.195 87.3824 107.153C87.4884 107.117 87.5734 107.087 87.6373 107.063C87.6973 107.041 87.7645 107.014 87.8387 106.983C87.9141 106.956 87.9851 106.928 88.0516 106.9L88.2155 107.358ZM84.2466 107.192C84.1429 106.78 84.0712 106.398 84.0315 106.047C83.9919 105.695 83.9947 105.366 84.0398 105.06C84.085 104.753 84.1841 104.46 84.3374 104.179C84.4918 103.902 84.7105 103.631 84.9936 103.365L85.4682 103.565C85.1743 103.809 84.9516 104.061 84.8003 104.32C84.65 104.583 84.5517 104.845 84.5053 105.106C84.4562 105.372 84.4441 105.629 84.4689 105.876C84.4899 106.125 84.5227 106.357 84.5673 106.574C84.5901 106.663 84.6155 106.753 84.6433 106.845C84.6673 106.938 84.6953 107.024 84.7273 107.102L84.2466 107.192Z" fill="#CFBD84"/>
<path d="M10.8309 80.0144C10.9045 80.0479 10.9787 80.0859 11.0533 80.1283C11.1279 80.1707 11.2074 80.217 11.2919 80.2674C11.3929 80.3213 11.5136 80.3912 11.6539 80.4769C11.7942 80.5626 11.9467 80.6525 12.1113 80.7464C12.2758 80.8403 12.4438 80.9321 12.6151 81.0217C12.7864 81.1113 12.9523 81.1925 13.1129 81.2653C13.4152 81.4038 13.6937 81.4864 13.9482 81.5131C14.2006 81.5364 14.4227 81.4864 14.6146 81.3632C14.8233 81.2292 14.9264 81.0228 14.9238 80.7441C14.9157 80.4641 14.7845 80.1254 14.5302 79.7279C14.4117 79.5426 14.2821 79.3549 14.1415 79.1648C13.9975 78.9768 13.8539 78.8005 13.7106 78.6359C13.5651 78.4679 13.4363 78.3296 13.3241 78.2211L13.7736 77.9325C13.8769 78.042 13.9919 78.1773 14.1186 78.3383C14.2466 78.4937 14.3781 78.6659 14.5132 78.8548C14.6517 79.0416 14.7877 79.2394 14.9213 79.4482C15.0743 79.6874 15.1942 79.9194 15.2809 80.1441C15.3711 80.3666 15.4231 80.5779 15.4371 80.778C15.449 80.9748 15.4152 81.1557 15.3356 81.3209C15.2526 81.4882 15.1169 81.6324 14.9284 81.7534C14.7432 81.8723 14.5484 81.9427 14.344 81.9647C14.1362 81.9888 13.9152 81.9738 13.6812 81.9198C13.4471 81.8657 13.2009 81.7814 12.9424 81.667C12.773 81.5952 12.6015 81.5128 12.4281 81.4198C12.2491 81.3256 12.0756 81.2326 11.9077 81.1409C11.7397 81.0491 11.585 80.9631 11.4434 80.8829C11.2997 80.7993 11.1791 80.7295 11.0814 80.6734C10.9924 80.6307 10.9127 80.5916 10.8424 80.5559C10.7688 80.5224 10.6928 80.4928 10.6146 80.467L10.8309 80.0144ZM11.5525 83.1582C11.7184 82.9424 11.876 82.7248 12.0254 82.5053C12.1725 82.2825 12.3063 82.0683 12.4265 81.8628C12.5446 81.6539 12.6479 81.4664 12.7363 81.3003L13.1664 81.516C13.0823 81.6889 12.9761 81.883 12.8479 82.0984C12.7197 82.3137 12.5797 82.5367 12.428 82.7672C12.2762 82.9977 12.1251 83.2255 11.9745 83.4504L11.5525 83.1582Z" fill="#CFBD84"/>
<path d="M6.84899 74.0172C6.82569 73.9448 6.80168 73.8705 6.77695 73.7943C6.75081 73.7144 6.72706 73.6464 6.70571 73.5903C6.67725 73.5155 6.6391 73.4209 6.59124 73.3065C6.54197 73.1883 6.4894 73.0671 6.43355 72.9429C6.37769 72.8186 6.32654 72.7012 6.28012 72.5905C6.22995 72.4812 6.19233 72.3992 6.16724 72.3446C6.13842 72.2914 6.11174 72.2438 6.08719 72.2018C6.05748 72.1575 6.02804 72.1195 5.99886 72.0878L6.12193 71.7196C6.16179 71.7344 6.20164 71.7491 6.2415 71.7638C6.27993 71.7748 6.32023 71.7851 6.3624 71.7947C6.48232 71.8174 6.64761 71.8355 6.85828 71.8492C7.06521 71.8643 7.29109 71.8785 7.53592 71.892C7.77559 71.9031 8.00778 71.9171 8.23251 71.934C8.3809 71.9414 8.54264 71.9503 8.71772 71.9604C8.88764 71.9682 9.06201 71.9765 9.24083 71.9852C9.41591 71.9953 9.58165 72.009 9.73804 72.0263C9.89302 72.0399 10.0249 72.0601 10.1336 72.0871C10.314 72.1337 10.4554 72.2016 10.5579 72.2909C10.6567 72.3816 10.7338 72.4999 10.7893 72.6456C10.869 72.855 10.866 73.0552 10.7804 73.2464C10.6948 73.4375 10.5343 73.5781 10.2989 73.6681C10.0896 73.7481 9.87755 73.7757 9.66261 73.7508C9.44252 73.7236 9.23319 73.6516 9.03463 73.5349C8.83465 73.4144 8.65247 73.2506 8.48808 73.0437C8.32227 72.8331 8.18529 72.5857 8.07714 72.3016C7.9576 71.9877 7.8797 71.6706 7.84343 71.3505C7.80201 71.0281 7.79083 70.7176 7.8099 70.4192C7.82381 70.1184 7.85444 69.8391 7.90179 69.5812C7.94399 69.321 7.9908 69.0954 8.04224 68.9045L8.60325 68.9276C8.52387 69.1464 8.45419 69.385 8.3942 69.6434C8.33048 69.9033 8.28695 70.1768 8.26361 70.4641C8.24027 70.7513 8.24505 71.0449 8.27794 71.3449C8.3094 71.6412 8.37992 71.9333 8.4895 72.2211C8.60619 72.5276 8.75883 72.7711 8.94742 72.9516C9.13084 73.1298 9.32495 73.2462 9.52974 73.3006C9.72937 73.3528 9.91513 73.346 10.087 73.2802C10.2103 73.2331 10.2928 73.163 10.3344 73.07C10.3709 72.9747 10.3728 72.8841 10.3401 72.7981C10.3159 72.7346 10.2789 72.6824 10.2291 72.6415C10.1793 72.6006 10.1082 72.5656 10.0158 72.5367C9.91459 72.5069 9.79654 72.4835 9.66167 72.4666C9.5268 72.4496 9.38259 72.4363 9.22904 72.4265C9.07549 72.4167 8.92078 72.4094 8.76491 72.4048C8.60905 72.4002 8.46252 72.392 8.32534 72.3802C8.13247 72.3683 7.93399 72.3585 7.72991 72.3509C7.5244 72.3396 7.32521 72.3279 7.13233 72.316C6.93804 72.3004 6.76153 72.2865 6.60282 72.2744C6.6279 72.3291 6.66224 72.408 6.70582 72.5112C6.74798 72.6107 6.79556 72.7188 6.84858 72.8356C6.89785 72.9538 6.94686 73.0656 6.9956 73.1712C7.03918 73.2744 7.07494 73.3571 7.10287 73.4192C7.12937 73.4776 7.16059 73.5427 7.19653 73.6146C7.22873 73.6879 7.26137 73.7568 7.29446 73.8212L6.84899 74.0172ZM6.74236 70.0437C7.14556 69.911 7.52109 69.8124 7.86895 69.7479C8.2168 69.6834 8.545 69.6628 8.85352 69.6862C9.16205 69.7095 9.4615 69.7877 9.75186 69.9208C10.0385 70.0553 10.3241 70.2544 10.6085 70.5181L10.4411 71.006C10.1777 70.73 9.9115 70.5256 9.64266 70.3929C9.37008 70.2616 9.10222 70.182 8.83906 70.1541C8.57075 70.124 8.31409 70.1301 8.06907 70.1723C7.82264 70.2109 7.59311 70.2601 7.38047 70.32C7.29311 70.3491 7.20459 70.3808 7.11491 70.4151C7.0238 70.4457 6.94044 70.4797 6.86482 70.5171L6.74236 70.0437Z" fill="#CFBD84"/>
</svg>
